<?xml version="1.0" encoding="utf-8"?>
<!-- Generator: Adobe Illustrator 19.0.0, SVG Export Plug-In . SVG Version: 6.00 Build 0)  -->
<svg version="1.1" id="Layer_1" xmlns="http://www.w3.org/2000/svg" xmlns:xlink="http://www.w3.org/1999/xlink" x="0px" y="0px"
	 viewBox="0 0 300 100" style="enable-background:new 0 0 300 100;" xml:space="preserve">
<style type="text/css">
	.st0{fill:#F2F2F2;}
</style>
<g id="XMLID_2_">
	<path id="XMLID_12_" class="st0" d="M30.8,86.5c0,2.5-0.7,4.6-2.1,6.1S25.5,95,23.3,95c-2.6,0.1-4.5-0.8-5.6-2.8h-0.2
		c-0.3,1.5-1.2,2.3-2.7,2.3H5.9V94c0.5,0,0.9-0.3,1.3-0.7c0.4-0.4,0.6-0.9,0.6-1.5V46.3c0-1.9-0.7-2.8-2-2.9v-0.2L17.5,34v22.5h0.1
		c0.7-0.7,1.7-1.4,3.1-2s2.7-0.9,3.8-0.9c4.1,0,6.2,2.7,6.2,8.2L30.8,86.5L30.8,86.5z M20.6,82.2V64.5c0-0.7-0.3-1-1-1h-0.5
		c-0.7,0-1,0.3-1,1v17.6c0,0.7,0.3,1,1,1h0.5C20.3,83.2,20.6,82.8,20.6,82.2z"/>
	<path id="XMLID_15_" class="st0" d="M46.6,94.5H34.9V65.3c0-1.9-0.7-2.8-2-2.9V62l11.7-9.2v39c0,1.3,0.6,2,1.9,2.3L46.6,94.5
		L46.6,94.5z M44.9,49c0,1.5-0.5,2.7-1.5,3.7s-2.2,1.5-3.5,1.5c-1.4,0-2.6-0.5-3.6-1.5s-1.5-2.3-1.5-3.7c0-1.5,0.5-2.7,1.5-3.7
		s2.2-1.5,3.6-1.5c1.4,0,2.6,0.5,3.5,1.5C44.4,46.3,44.9,47.5,44.9,49z"/>
	<path id="XMLID_19_" class="st0" d="M70.1,87.9c0,2.4-0.8,4.1-2.4,5.3c-1.8,1.3-4.7,1.9-8.8,1.9c-3.3,0-5.7-0.4-7.2-1.1
		c-2.4-1.1-3.7-3.2-3.7-6.4V78h0.4c0.1,1.7,0.8,3.3,1.9,4.7c1.3,1.6,2.8,2.4,4.6,2.5c1.5,0.1,2.7-0.1,3.6-0.6
		c1.1-0.5,1.6-1.4,1.5-2.7c0-1.2-0.6-2.2-1.5-3c-0.2-0.1-1.2-0.7-3-1.9c-2.7-1.7-4.3-2.6-4.6-2.9C49,72.5,48,70.7,48,68.7v-7.5
		c0-5.3,3.8-7.9,11.4-8c7.1,0,10.7,2.5,10.7,7.6v6.8h-0.4c-0.7-2.9-2.8-4.4-6.2-4.6c-3-0.1-4.4,1-4.5,3.3c0,1.3,0.9,2.5,2.8,3.7
		c3.3,2,5.1,3.1,5.3,3.3C69,74.9,70,77,70,79.4v8.5H70.1z"/>
	<path id="XMLID_21_" class="st0" d="M99.4,94.5H88.3V64.3c0-2-0.8-3-2.4-3c-1.5,0-2.3,1-2.3,3v26.6c0,1.5,0.7,2.6,2,3.2v0.4H73.9
		V46.3c0-1.9-0.7-2.8-2-2.9v-0.3L83.6,34v22.5c1.9-2,4.4-3,7.3-3c1.9,0,3.5,0.6,4.7,1.8c1.2,1.1,1.8,2.8,1.8,4.8v31.1
		c0,1.5,0.7,2.5,2.1,3L99.4,94.5L99.4,94.5z"/>
	<path id="XMLID_23_" class="st0" d="M125.2,94.5h-7.6c-2.2,0-3.4-1.6-3.7-4.7h-0.1c-1.1,3.2-2.6,4.7-4.6,4.7H105
		c-3.2,0-4.8-1.5-4.8-4.5v-9.9c0-2.1,0.1-3.5,0.2-4.1c0.2-0.7,0.6-1.3,1.2-1.8l10.8-8.8c0.8-0.7,1.2-1.3,1.2-1.9v-1.2
		c0-0.7-0.4-1.1-1.2-1.1h-3.6c-2.8,0-5.2,1.1-7.2,3.2c0-1,0.3-2.1,0.9-3.4l2-4c1.1-2.2,2.8-3.3,5-3.3h8.4c1.7,0,3.1,0.5,4,1.6
		c0.9,1.1,1.4,2.5,1.4,4.2v29C123.4,91.2,124,93.2,125.2,94.5z M113.6,86.2v-12l-2.4,1.9c-0.9,0.7-1.3,1.8-1.3,3.4v5.1
		c0,1,0.5,1.5,1.6,1.5L113.6,86.2L113.6,86.2z"/>
	<path id="XMLID_26_" class="st0" d="M139.2,94.5h-11.6V46.3c0-1.9-0.7-2.8-2-2.9v-0.3l11.7-9.1v57.8c0,1.3,0.6,2,1.9,2.3V94.5z"/>
	<path id="XMLID_28_" class="st0" d="M162.2,87.9c0,2.4-0.8,4.1-2.4,5.3c-1.8,1.3-4.7,1.9-8.8,1.9c-3.3,0-5.7-0.4-7.2-1.1
		c-2.4-1.1-3.7-3.2-3.7-6.4V78h0.4c0.1,1.7,0.8,3.3,1.9,4.7c1.3,1.6,2.8,2.4,4.6,2.5c1.5,0.1,2.7-0.1,3.6-0.6
		c1.1-0.5,1.6-1.4,1.5-2.7c0-1.2-0.6-2.2-1.5-3c-0.2-0.1-1.2-0.7-3-1.9c-2.7-1.7-4.3-2.6-4.6-2.9c-1.9-1.6-2.9-3.4-2.9-5.4v-7.5
		c0-5.3,3.8-7.9,11.4-8c7.1,0,10.7,2.5,10.7,7.6v6.8h-0.4c-0.7-2.9-2.8-4.4-6.2-4.6c-3-0.1-4.4,1-4.5,3.3c0,1.3,0.9,2.5,2.8,3.7
		c3.3,2,5.1,3.1,5.3,3.3c1.9,1.6,2.9,3.7,2.9,6.1L162.2,87.9L162.2,87.9z"/>
	<path id="XMLID_30_" class="st0" d="M189.9,94.5h-7.6c-2.2,0-3.4-1.6-3.7-4.7h-0.1c-1.1,3.2-2.6,4.7-4.6,4.7h-4.2
		c-3.2,0-4.8-1.5-4.8-4.5v-9.9c0-2.1,0.1-3.5,0.2-4.1c0.2-0.7,0.6-1.3,1.2-1.8l10.8-8.8c0.8-0.7,1.2-1.3,1.2-1.9v-1.2
		c0-0.7-0.4-1.1-1.2-1.1h-3.6c-2.8,0-5.2,1.1-7.2,3.2c0-1,0.3-2.1,0.9-3.4l2-4c1.1-2.2,2.8-3.3,5-3.3h8.4c1.7,0,3.1,0.5,4,1.6
		c0.9,1.1,1.4,2.5,1.4,4.2v29C188.2,91.2,188.8,93.2,189.9,94.5z M178.4,86.2v-12l-2.4,1.9c-0.9,0.7-1.3,1.8-1.3,3.4v5.1
		c0,1,0.5,1.5,1.6,1.5L178.4,86.2L178.4,86.2z"/>
	<path id="XMLID_33_" class="st0" d="M215.3,65.4l-9,8.4v-9.5c0-2-0.7-3-2-3c-1.5,0-2.2,1-2.2,3v27.2c0,1.5,0.6,2.3,1.9,2.5v0.5
		h-11.6V65c0-1.9-0.7-2.8-2-2.9v-0.3l11.7-9.4v4.1c1.8-1.9,4.1-2.9,6.8-2.9c4.3,0,6.4,2,6.4,6.2L215.3,65.4L215.3,65.4z"/>
	<path id="XMLID_35_" class="st0" d="M245,94.5h-11L229.9,81c-0.2-0.8-0.6-1.1-1.1-1.1s-0.8,0.6-0.8,1.6v10.2c0,1.4,0.6,2.2,1.9,2.4
		v0.4h-11.6V46.3c0-1.9-0.7-2.8-2-2.9v-0.3L228,34v27.5l1.9-3c0.9-1.4,1.3-2.9,1.1-4.5h12.5l-8.4,12.5l7.3,23.6
		c0.3,1,0.6,1.7,0.8,2.2c0.5,0.9,1.1,1.5,1.8,1.9L245,94.5L245,94.5z"/>
	<path id="XMLID_62_" class="st0" d="M268.7,85.8c0,5.8-2.4,8.6-7,8.6H250c-3.2,0-4.9-1.6-4.9-4.7V58.6c0-1.4,0.5-2.5,1.5-3.3
		s2.2-1.2,3.7-1.2h13.6c1.2,0,2.3,0.4,3.1,1.1c0.9,0.8,1.3,1.9,1.3,3.3v8.8c0,1.9-0.9,3.6-2.7,5.1l-7.8,6.5
		c-1.8,1.5-2.7,2.9-2.6,4.1c0,1.9,1.5,2.9,4.4,2.9h2.6c3.1,0,5-1.1,5.9-3.4h0.3C268.6,83.3,268.7,84.4,268.7,85.8z M258.6,64.1v-0.6
		c0-1.8-0.6-2.7-1.9-2.6c-1.3,0-2,1-2,3v6.3l2.3-1.9C258.1,67.4,258.6,66,258.6,64.1z"/>
	<path id="XMLID_65_" class="st0" d="M295.2,65.4l-9,8.4v-9.5c0-2-0.7-3-2-3c-1.5,0-2.2,1-2.2,3v27.2c0,1.5,0.6,2.3,1.9,2.5v0.5
		h-11.6V65c0-1.9-0.7-2.8-2-2.9v-0.3l11.7-9.4v4.1c1.8-1.9,4.1-2.9,6.8-2.9c4.3,0,6.4,2,6.4,6.2L295.2,65.4L295.2,65.4z"/>
</g>
<g id="XMLID_3_">
	<path id="XMLID_4_" class="st0" d="M18.3,22c0-0.4-0.1-0.7-0.2-1s-0.3-0.6-0.6-0.9s-0.8-0.5-1.3-0.8s-1.3-0.5-2.3-0.7
		c-1.1-0.2-2-0.5-2.8-0.8S9.5,17.2,9,16.8s-1-0.9-1.4-1.5S7.1,14,7.1,13.2c0-0.8,0.2-1.5,0.5-2.1S8.4,9.8,9,9.3s1.3-0.9,2.2-1.2
		s1.8-0.4,2.9-0.4c1.1,0,2.2,0.2,3,0.5s1.7,0.7,2.3,1.3s1.1,1.2,1.4,1.9s0.5,1.5,0.5,2.3h-3.3c0-0.4-0.1-0.8-0.3-1.2
		s-0.4-0.7-0.8-1.1s-0.8-0.6-1.2-0.8s-1.1-0.3-1.7-0.3c-0.7,0-1.3,0.1-1.7,0.2s-0.9,0.4-1.2,0.6s-0.5,0.6-0.7,0.9s-0.2,0.7-0.2,1
		s0.1,0.7,0.2,0.9s0.3,0.5,0.7,0.8s0.8,0.4,1.3,0.6s1.3,0.4,2.2,0.6c1.2,0.3,2.2,0.6,3,0.9s1.6,0.7,2.1,1.2s1,1,1.3,1.6
		s0.4,1.3,0.4,2c0,0.8-0.2,1.6-0.5,2.3s-0.8,1.3-1.5,1.8s-1.4,0.9-2.3,1.2s-1.9,0.4-3,0.4c-1.3,0-2.4-0.2-3.3-0.5S9.1,26,8.5,25.4
		s-1.2-1.2-1.5-2s-0.5-1.5-0.5-2.3h3.3c0,0.7,0.2,1.2,0.5,1.7s0.6,0.8,1.1,1.1s0.9,0.5,1.4,0.6s1,0.2,1.5,0.2c0.7,0,1.3-0.1,1.8-0.2
		s0.9-0.3,1.3-0.6s0.6-0.5,0.8-0.9S18.3,22.3,18.3,22z"/>
	<path id="XMLID_8_" class="st0" d="M30.2,3.4V8h3.6v2.5h-3.6v11.8c0,0.5,0.1,0.9,0.2,1.2s0.3,0.5,0.5,0.7s0.4,0.3,0.7,0.3
		s0.5,0.1,0.8,0.1s0.6,0,0.9-0.1s0.5-0.1,0.7-0.1V27c-0.3,0.1-0.6,0.1-1,0.2s-0.9,0.1-1.5,0.1c-0.6,0-1.2-0.1-1.7-0.3
		s-1-0.5-1.4-0.9s-0.7-0.9-0.9-1.6S27,23.2,27,22.3V10.5h-3.5V8H27V3.4H30.2z"/>
	<path id="XMLID_10_" class="st0" d="M36.4,17.3c0-1.4,0.2-2.7,0.6-3.8s1-2.2,1.7-3.1s1.6-1.5,2.7-2s2.3-0.7,3.6-0.7
		c1.3,0,2.6,0.2,3.6,0.7s2,1.2,2.7,2s1.3,1.9,1.7,3.1s0.6,2.5,0.6,3.8v0.4c0,1.4-0.2,2.7-0.6,3.8s-1,2.2-1.7,3.1s-1.7,1.5-2.7,2
		s-2.3,0.7-3.6,0.7s-2.5-0.2-3.6-0.7s-2-1.2-2.7-2s-1.3-1.9-1.7-3.1s-0.6-2.5-0.6-3.8V17.3z M39.6,17.7c0,0.9,0.1,1.8,0.3,2.7
		s0.6,1.6,1,2.2s1,1.1,1.7,1.5s1.5,0.6,2.4,0.6c0.9,0,1.7-0.2,2.4-0.6s1.2-0.9,1.7-1.5s0.8-1.4,1-2.2s0.3-1.7,0.3-2.7v-0.4
		c0-0.9-0.1-1.8-0.3-2.7s-0.6-1.6-1-2.2s-1-1.1-1.7-1.5s-1.5-0.6-2.4-0.6c-0.9,0-1.7,0.2-2.3,0.6s-1.2,0.9-1.7,1.5s-0.8,1.4-1,2.2
		s-0.3,1.7-0.3,2.7V17.7z"/>
	<path id="XMLID_17_" class="st0" d="M67,10.9c-0.3,0-0.5-0.1-0.8-0.1s-0.5,0-0.8,0c-1.1,0-2,0.2-2.8,0.7s-1.2,1.2-1.6,2V27h-3.3V8
		h3.2l0.1,2.2c0.5-0.8,1.1-1.4,1.8-1.9s1.6-0.7,2.7-0.7c0.2,0,0.5,0,0.8,0.1s0.5,0.1,0.6,0.2V10.9z"/>
	<path id="XMLID_24_" class="st0" d="M70,2.9c0-0.5,0.2-1,0.5-1.3s0.8-0.5,1.4-0.5s1.1,0.2,1.4,0.5s0.5,0.8,0.5,1.3s-0.2,1-0.5,1.3
		s-0.8,0.5-1.4,0.5s-1.1-0.2-1.4-0.5S70,3.5,70,2.9z M73.5,27h-3.3V8h3.3V27z"/>
	<path id="XMLID_36_" class="st0" d="M86.6,27.4c-1.3,0-2.5-0.2-3.6-0.7s-2-1.1-2.8-1.9s-1.3-1.8-1.8-2.9s-0.6-2.4-0.6-3.7v-0.7
		c0-1.5,0.2-2.9,0.7-4.1s1.1-2.2,1.9-3.1s1.7-1.5,2.7-1.9s2-0.7,3.1-0.7c1.4,0,2.5,0.2,3.5,0.7s1.8,1.1,2.4,2s1.1,1.8,1.4,3
		S94,15.6,94,17v1.5H81.1c0,0.9,0.2,1.7,0.4,2.5s0.6,1.4,1.1,2s1.1,1,1.8,1.3s1.5,0.5,2.3,0.5c1.1,0,2.1-0.2,2.9-0.7
		s1.5-1.1,2.1-1.9l2,1.5c-0.3,0.5-0.7,0.9-1.1,1.4s-0.9,0.8-1.5,1.2s-1.2,0.6-2,0.8S87.5,27.4,86.6,27.4z M86.2,10.3
		c-0.7,0-1.3,0.1-1.8,0.4s-1,0.6-1.5,1s-0.8,1-1.1,1.7s-0.5,1.5-0.6,2.3h9.5v-0.2c0-0.6-0.1-1.3-0.3-1.9S90,12.4,89.6,12
		s-0.8-0.9-1.4-1.2S87,10.3,86.2,10.3z"/>
	<path id="XMLID_40_" class="st0" d="M108.8,22c0-0.4-0.1-0.7-0.2-1s-0.3-0.6-0.6-0.9s-0.8-0.5-1.3-0.8s-1.3-0.5-2.3-0.7
		c-1.1-0.2-2-0.5-2.8-0.8s-1.6-0.7-2.2-1.1s-1-0.9-1.4-1.5s-0.5-1.3-0.5-2.1c0-0.8,0.2-1.5,0.5-2.1s0.8-1.3,1.4-1.8s1.3-0.9,2.2-1.2
		s1.8-0.4,2.9-0.4c1.1,0,2.2,0.2,3,0.5s1.7,0.7,2.3,1.3s1.1,1.2,1.4,1.9s0.5,1.5,0.5,2.3h-3.3c0-0.4-0.1-0.8-0.3-1.2
		s-0.4-0.7-0.8-1.1s-0.8-0.6-1.2-0.8s-1.1-0.3-1.7-0.3c-0.7,0-1.3,0.1-1.7,0.2s-0.9,0.4-1.2,0.6s-0.5,0.6-0.7,0.9s-0.2,0.7-0.2,1
		s0.1,0.7,0.2,0.9s0.3,0.5,0.7,0.8s0.8,0.4,1.3,0.6s1.3,0.4,2.2,0.6c1.2,0.3,2.2,0.6,3,0.9s1.6,0.7,2.1,1.2s1,1,1.3,1.6
		s0.4,1.3,0.4,2c0,0.8-0.2,1.6-0.5,2.3s-0.8,1.3-1.5,1.8s-1.4,0.9-2.3,1.2s-1.9,0.4-3,0.4c-1.3,0-2.4-0.2-3.3-0.5S99.6,26,99,25.4
		s-1.2-1.2-1.5-2S97,21.9,97,21.1h3.3c0,0.7,0.2,1.2,0.5,1.7s0.6,0.8,1.1,1.1s0.9,0.5,1.4,0.6s1,0.2,1.5,0.2c0.7,0,1.3-0.1,1.8-0.2
		s0.9-0.3,1.3-0.6s0.6-0.5,0.8-0.9S108.8,22.3,108.8,22z"/>
</g>
</svg>
