<?xml version="1.0" encoding="utf-8"?>
<!-- Generator: Adobe Illustrator 19.0.0, SVG Export Plug-In . SVG Version: 6.00 Build 0)  -->
<svg version="1.1" id="Layer_1" xmlns="http://www.w3.org/2000/svg" xmlns:xlink="http://www.w3.org/1999/xlink" x="0px" y="0px"
	 viewBox="0 0 350 80" style="enable-background:new 0 0 350 80;" xml:space="preserve">
<style type="text/css">
	.st0{fill:#BD5D38;}
</style>
<g id="XMLID_5_">
	<g id="XMLID_2_">
		<path id="XMLID_12_" class="st0" d="M132.1,52.4c0,2-0.6,3.7-1.7,4.9c-1.1,1.2-2.6,1.9-4.3,1.9c-2.1,0.1-3.6-0.6-4.5-2.2h-0.2
			c-0.2,1.2-1,1.8-2.2,1.8h-7.1v-0.4c0.4,0,0.7-0.2,1-0.6c0.3-0.3,0.5-0.7,0.5-1.2V20.3c0-1.5-0.6-2.2-1.6-2.3v-0.2l9.3-7.3v18h0.1
			c0.6-0.6,1.4-1.1,2.5-1.6c1.1-0.5,2.2-0.7,3-0.7c3.3,0,4.9,2.2,4.9,6.5L132.1,52.4L132.1,52.4z M123.9,49V34.9
			c0-0.6-0.2-0.8-0.8-0.8h-0.4c-0.6,0-0.8,0.2-0.8,0.8v14.1c0,0.6,0.2,0.8,0.8,0.8h0.4C123.7,49.8,123.9,49.5,123.9,49z"/>
		<path id="XMLID_15_" class="st0" d="M144.7,58.8h-9.3V35.5c0-1.5-0.6-2.2-1.6-2.3v-0.3l9.3-7.3v31.1c0,1,0.5,1.6,1.5,1.8
			L144.7,58.8L144.7,58.8z M143.3,22.5c0,1.2-0.4,2.2-1.2,3c-0.8,0.8-1.8,1.2-2.8,1.2c-1.1,0-2.1-0.4-2.9-1.2
			c-0.8-0.8-1.2-1.8-1.2-3c0-1.2,0.4-2.2,1.2-3c0.8-0.8,1.8-1.2,2.9-1.2c1.1,0,2.1,0.4,2.8,1.2C142.9,20.3,143.3,21.3,143.3,22.5z"
			/>
		<path id="XMLID_19_" class="st0" d="M163.4,53.5c0,1.9-0.6,3.3-1.9,4.2c-1.4,1-3.8,1.5-7,1.5c-2.6,0-4.6-0.3-5.7-0.9
			c-1.9-0.9-3-2.6-3-5.1v-7.7h0.3c0.1,1.4,0.6,2.6,1.5,3.8c1,1.3,2.2,1.9,3.7,2c1.2,0.1,2.2-0.1,2.9-0.5c0.9-0.4,1.3-1.1,1.2-2.2
			c0-1-0.5-1.8-1.2-2.4c-0.2-0.1-1-0.6-2.4-1.5c-2.2-1.4-3.4-2.1-3.7-2.3c-1.5-1.3-2.3-2.7-2.3-4.3v-6c0-4.2,3-6.3,9.1-6.4
			c5.7,0,8.5,2,8.5,6.1v5.4h-0.3c-0.6-2.3-2.2-3.5-4.9-3.7c-2.4-0.1-3.5,0.8-3.6,2.6c0,1,0.7,2,2.2,3c2.6,1.6,4.1,2.5,4.2,2.6
			c1.5,1.3,2.3,3,2.3,4.9L163.4,53.5L163.4,53.5z"/>
		<path id="XMLID_21_" class="st0" d="M186.8,58.8H178V34.7c0-1.6-0.6-2.4-1.9-2.4c-1.2,0-1.8,0.8-1.8,2.4v21.2
			c0,1.2,0.6,2.1,1.6,2.6v0.3h-9.3V20.3c0-1.5-0.6-2.2-1.6-2.3v-0.2l9.3-7.3v18c1.5-1.6,3.5-2.4,5.8-2.4c1.5,0,2.8,0.5,3.8,1.4
			c1,0.9,1.4,2.2,1.4,3.8v24.8c0,1.2,0.6,2,1.7,2.4L186.8,58.8L186.8,58.8z"/>
		<path id="XMLID_23_" class="st0" d="M207.4,58.8h-6.1c-1.8,0-2.7-1.3-3-3.8h-0.1c-0.9,2.6-2.1,3.8-3.7,3.8h-3.4
			c-2.6,0-3.8-1.2-3.8-3.6v-7.9c0-1.7,0.1-2.8,0.2-3.3c0.2-0.6,0.5-1,1-1.4l8.6-7c0.6-0.6,1-1,1-1.5v-1c0-0.6-0.3-0.9-1-0.9h-2.9
			c-2.2,0-4.2,0.9-5.7,2.6c0-0.8,0.2-1.7,0.7-2.7l1.6-3.2c0.9-1.8,2.2-2.6,4-2.6h6.7c1.4,0,2.5,0.4,3.2,1.3s1.1,2,1.1,3.4V54
			C206,56.2,206.5,57.8,207.4,58.8z M198.2,52.2v-9.6l-1.9,1.5c-0.7,0.6-1,1.4-1,2.7v4.1c0,0.8,0.4,1.2,1.3,1.2L198.2,52.2
			L198.2,52.2z"/>
		<path id="XMLID_26_" class="st0" d="M218.6,58.8h-9.3V20.3c0-1.5-0.6-2.2-1.6-2.3v-0.2l9.3-7.3v46.1c0,1,0.5,1.6,1.5,1.8V58.8z"/>
		<path id="XMLID_28_" class="st0" d="M237,53.5c0,1.9-0.6,3.3-1.9,4.2c-1.4,1-3.8,1.5-7,1.5c-2.6,0-4.6-0.3-5.7-0.9
			c-1.9-0.9-3-2.6-3-5.1v-7.7h0.3c0.1,1.4,0.6,2.6,1.5,3.8c1,1.3,2.2,1.9,3.7,2c1.2,0.1,2.2-0.1,2.9-0.5c0.9-0.4,1.3-1.1,1.2-2.2
			c0-1-0.5-1.8-1.2-2.4c-0.2-0.1-1-0.6-2.4-1.5c-2.2-1.4-3.4-2.1-3.7-2.3c-1.5-1.3-2.3-2.7-2.3-4.3v-6c0-4.2,3-6.3,9.1-6.4
			c5.7,0,8.5,2,8.5,6.1v5.4h-0.3c-0.6-2.3-2.2-3.5-4.9-3.7c-2.4-0.1-3.5,0.8-3.6,2.6c0,1,0.7,2,2.2,3c2.6,1.6,4.1,2.5,4.2,2.6
			c1.5,1.3,2.3,3,2.3,4.9L237,53.5L237,53.5z"/>
		<path id="XMLID_30_" class="st0" d="M259.1,58.8H253c-1.8,0-2.7-1.3-3-3.8H250c-0.9,2.6-2.1,3.8-3.7,3.8H243
			c-2.6,0-3.8-1.2-3.8-3.6v-7.9c0-1.7,0.1-2.8,0.2-3.3c0.2-0.6,0.5-1,1-1.4l8.6-7c0.6-0.6,1-1,1-1.5v-1c0-0.6-0.3-0.9-1-0.9H246
			c-2.2,0-4.2,0.9-5.7,2.6c0-0.8,0.2-1.7,0.7-2.7l1.6-3.2c0.9-1.8,2.2-2.6,4-2.6h6.7c1.4,0,2.5,0.4,3.2,1.3s1.1,2,1.1,3.4V54
			C257.7,56.2,258.2,57.8,259.1,58.8z M249.9,52.2v-9.6l-1.9,1.5c-0.7,0.6-1,1.4-1,2.7v4.1c0,0.8,0.4,1.2,1.3,1.2L249.9,52.2
			L249.9,52.2z"/>
		<path id="XMLID_33_" class="st0" d="M279.4,35.6l-7.2,6.7v-7.6c0-1.6-0.6-2.4-1.6-2.4c-1.2,0-1.8,0.8-1.8,2.4v21.7
			c0,1.2,0.5,1.8,1.5,2v0.4h-9.3V35.3c0-1.5-0.6-2.2-1.6-2.3v-0.2l9.3-7.5v3.3c1.4-1.5,3.3-2.3,5.4-2.3c3.4,0,5.1,1.6,5.1,4.9V35.6
			L279.4,35.6z"/>
		<path id="XMLID_35_" class="st0" d="M303.1,58.8h-8.8L291,48c-0.2-0.6-0.5-0.9-0.9-0.9c-0.4,0-0.6,0.5-0.6,1.3v8.1
			c0,1.1,0.5,1.8,1.5,1.9v0.3h-9.3V20.3c0-1.5-0.6-2.2-1.6-2.3v-0.2l9.3-7.3v22l1.5-2.4c0.7-1.1,1-2.3,0.9-3.6h10l-6.7,10l5.8,18.8
			c0.2,0.8,0.5,1.4,0.6,1.8c0.4,0.7,0.9,1.2,1.4,1.5V58.8L303.1,58.8z"/>
		<path id="XMLID_62_" class="st0" d="M322,51.9c0,4.6-1.9,6.9-5.6,6.9h-9.3c-2.6,0-3.9-1.3-3.9-3.8V30.2c0-1.1,0.4-2,1.2-2.6
			c0.8-0.6,1.8-1,3-1h10.9c1,0,1.8,0.3,2.5,0.9c0.7,0.6,1,1.5,1,2.6v7c0,1.5-0.7,2.9-2.2,4.1l-6.2,5.2c-1.4,1.2-2.2,2.3-2.1,3.3
			c0,1.5,1.2,2.3,3.5,2.3h2.1c2.5,0,4-0.9,4.7-2.7h0.2C321.9,49.9,322,50.8,322,51.9z M313.9,34.5v-0.5c0-1.4-0.5-2.2-1.5-2.1
			c-1,0-1.6,0.8-1.6,2.4v5l1.8-1.5C313.5,37.2,313.9,36.1,313.9,34.5z"/>
		<path id="XMLID_65_" class="st0" d="M343.2,35.6l-7.2,6.7v-7.6c0-1.6-0.6-2.4-1.6-2.4c-1.2,0-1.8,0.8-1.8,2.4v21.7
			c0,1.2,0.5,1.8,1.5,2v0.4h-9.3V35.3c0-1.5-0.6-2.2-1.6-2.3v-0.2l9.3-7.5v3.3c1.4-1.5,3.3-2.3,5.4-2.3c3.4,0,5.1,1.6,5.1,4.9
			L343.2,35.6L343.2,35.6z"/>
	</g>
	<g id="XMLID_3_">
		<path id="XMLID_4_" class="st0" d="M16.3,55.2c0-0.3-0.1-0.6-0.2-0.8c-0.1-0.2-0.2-0.5-0.5-0.7c-0.2-0.2-0.6-0.4-1-0.6
			c-0.4-0.2-1-0.4-1.8-0.6c-0.9-0.2-1.6-0.4-2.2-0.6c-0.6-0.2-1.3-0.5-1.7-0.8S8,50.3,7.7,49.8c-0.3-0.5-0.4-1-0.4-1.7
			s0.2-1.2,0.4-1.7C8,46,8.4,45.4,8.8,45s1-0.7,1.8-1s1.4-0.3,2.3-0.3s1.8,0.2,2.4,0.4c0.6,0.2,1.4,0.6,1.8,1s0.9,1,1.1,1.5
			c0.2,0.6,0.4,1.2,0.4,1.8H16c0-0.3-0.1-0.6-0.2-1c-0.2-0.3-0.3-0.6-0.6-0.9s-0.6-0.5-1-0.6c-0.3-0.2-0.9-0.2-1.4-0.2
			c-0.6,0-1,0.1-1.4,0.2s-0.7,0.3-1,0.5S10.1,47,10,47.2c-0.2,0.2-0.2,0.6-0.2,0.8s0.1,0.6,0.2,0.7c0.1,0.2,0.2,0.4,0.6,0.6
			s0.6,0.3,1,0.5s1,0.3,1.8,0.5c1,0.2,1.8,0.5,2.4,0.7c0.6,0.2,1.3,0.6,1.7,1c0.4,0.4,0.8,0.8,1,1.3c0.2,0.5,0.3,1,0.3,1.6
			c0,0.6-0.2,1.3-0.4,1.8c-0.2,0.6-0.6,1-1.2,1.4c-0.6,0.4-1.1,0.7-1.8,1s-1.5,0.3-2.4,0.3c-1,0-1.9-0.2-2.6-0.4
			c-0.7-0.2-1.4-0.6-1.8-1.1c-0.5-0.5-1-1-1.2-1.6c-0.2-0.6-0.4-1.2-0.4-1.8h2.6c0,0.6,0.2,1,0.4,1.4c0.2,0.4,0.5,0.6,0.9,0.9
			c0.4,0.2,0.7,0.4,1.1,0.5s0.8,0.2,1.2,0.2c0.6,0,1-0.1,1.4-0.2c0.4-0.1,0.7-0.2,1-0.5c0.3-0.2,0.5-0.4,0.6-0.7
			C16.3,55.7,16.3,55.4,16.3,55.2z"/>
		<path id="XMLID_8_" class="st0" d="M25.8,40.3V44h2.9v2h-2.9v9.4c0,0.4,0.1,0.7,0.2,1c0.1,0.2,0.2,0.4,0.4,0.6s0.3,0.2,0.6,0.2
			c0.2,0,0.4,0.1,0.6,0.1s0.5,0,0.7-0.1s0.4-0.1,0.6-0.1v2.1c-0.2,0.1-0.5,0.1-0.8,0.2c-0.3,0.1-0.7,0.1-1.2,0.1
			c-0.5,0-1-0.1-1.4-0.2c-0.4-0.2-0.8-0.4-1.1-0.7c-0.3-0.3-0.6-0.7-0.7-1.3c-0.2-0.6-0.4-1-0.4-1.8V46h-2.8v-2h2.8v-3.7H25.8z"/>
		<path id="XMLID_10_" class="st0" d="M30.7,51.4c0-1.1,0.2-2.2,0.5-3c0.3-0.9,0.8-1.8,1.4-2.5c0.6-0.7,1.3-1.2,2.2-1.6
			s1.8-0.6,2.9-0.6s2.1,0.2,2.9,0.6c0.8,0.4,1.6,1,2.2,1.6c0.6,0.6,1,1.5,1.4,2.5s0.5,2,0.5,3v0.3c0,1.1-0.2,2.2-0.5,3
			c-0.3,0.9-0.8,1.8-1.4,2.5c-0.6,0.7-1.4,1.2-2.2,1.6c-0.8,0.4-1.8,0.6-2.9,0.6s-2-0.2-2.9-0.6s-1.6-1-2.2-1.6
			c-0.6-0.6-1-1.5-1.4-2.5c-0.3-1-0.5-2-0.5-3V51.4z M33.3,51.7c0,0.7,0.1,1.4,0.2,2.2s0.5,1.3,0.8,1.8c0.3,0.5,0.8,0.9,1.4,1.2
			c0.6,0.3,1.2,0.5,1.9,0.5s1.4-0.2,1.9-0.5c0.6-0.3,1-0.7,1.4-1.2c0.4-0.5,0.6-1.1,0.8-1.8c0.2-0.6,0.2-1.4,0.2-2.2v-0.3
			c0-0.7-0.1-1.4-0.2-2.2c-0.2-0.7-0.5-1.3-0.8-1.8c-0.3-0.5-0.8-0.9-1.4-1.2c-0.6-0.3-1.2-0.5-1.9-0.5s-1.4,0.2-1.8,0.5
			c-0.5,0.3-1,0.7-1.4,1.2s-0.6,1.1-0.8,1.8c-0.2,0.6-0.2,1.4-0.2,2.2L33.3,51.7L33.3,51.7z"/>
		<path id="XMLID_17_" class="st0" d="M55.1,46.3c-0.2,0-0.4-0.1-0.6-0.1c-0.2,0-0.4,0-0.6,0c-0.9,0-1.6,0.2-2.2,0.6
			c-0.6,0.4-1,1-1.3,1.6v10.8h-2.6V44h2.6l0.1,1.8c0.4-0.6,0.9-1.1,1.4-1.5c0.6-0.4,1.3-0.6,2.2-0.6c0.2,0,0.4,0,0.6,0.1
			c0.2,0.1,0.4,0.1,0.5,0.2L55.1,46.3L55.1,46.3z"/>
		<path id="XMLID_24_" class="st0" d="M57.5,39.9c0-0.4,0.2-0.8,0.4-1c0.2-0.2,0.6-0.4,1.1-0.4c0.5,0,0.9,0.2,1.1,0.4
			c0.2,0.2,0.4,0.6,0.4,1c0,0.4-0.2,0.8-0.4,1c-0.2,0.2-0.6,0.4-1.1,0.4c-0.5,0-0.9-0.2-1.1-0.4C57.7,40.7,57.5,40.4,57.5,39.9z
			 M60.3,59.2h-2.6V44h2.6V59.2z"/>
		<path id="XMLID_36_" class="st0" d="M70.8,59.5c-1,0-2-0.2-2.9-0.6s-1.6-0.9-2.2-1.5c-0.6-0.6-1-1.4-1.4-2.3
			c-0.4-0.9-0.5-1.9-0.5-3v-0.6c0-1.2,0.2-2.3,0.6-3.3c0.4-1,0.9-1.8,1.5-2.5c0.6-0.7,1.4-1.2,2.2-1.5c0.8-0.3,1.6-0.6,2.5-0.6
			c1.1,0,2,0.2,2.8,0.6c0.8,0.4,1.4,0.9,1.9,1.6c0.5,0.7,0.9,1.4,1.1,2.4c0.2,1,0.4,1.8,0.4,2.9v1.2H66.4c0,0.7,0.2,1.4,0.3,2
			c0.2,0.6,0.5,1.1,0.9,1.6c0.4,0.5,0.9,0.8,1.4,1s1.2,0.4,1.8,0.4c0.9,0,1.7-0.2,2.3-0.6s1.2-0.9,1.7-1.5l1.6,1.2
			c-0.2,0.4-0.6,0.7-0.9,1.1c-0.3,0.4-0.7,0.6-1.2,1c-0.5,0.3-1,0.5-1.6,0.6C72.2,59.4,71.5,59.5,70.8,59.5z M70.5,45.8
			c-0.6,0-1,0.1-1.4,0.3c-0.4,0.2-0.8,0.5-1.2,0.8c-0.4,0.3-0.6,0.8-0.9,1.4s-0.4,1.2-0.5,1.8h7.6V50c0-0.5-0.1-1-0.2-1.5
			c-0.2-0.5-0.3-1-0.6-1.3c-0.3-0.3-0.6-0.7-1.1-1C71.6,46,71.1,45.8,70.5,45.8z"/>
		<path id="XMLID_40_" class="st0" d="M88.5,55.2c0-0.3-0.1-0.6-0.2-0.8c-0.1-0.2-0.2-0.5-0.5-0.7s-0.6-0.4-1-0.6
			c-0.4-0.2-1-0.4-1.8-0.6c-0.9-0.2-1.6-0.4-2.2-0.6c-0.6-0.2-1.3-0.6-1.8-0.9c-0.5-0.3-0.8-0.7-1.1-1.2s-0.4-1-0.4-1.7
			s0.2-1.2,0.4-1.7s0.6-1,1.1-1.4c0.5-0.4,1-0.7,1.8-1s1.4-0.3,2.3-0.3s1.8,0.2,2.4,0.4s1.4,0.6,1.8,1c0.5,0.5,0.9,1,1.1,1.5
			c0.2,0.6,0.4,1.2,0.4,1.8h-2.6c0-0.3-0.1-0.6-0.2-1c-0.2-0.3-0.3-0.6-0.6-0.9s-0.6-0.5-1-0.6c-0.3-0.2-0.9-0.2-1.4-0.2
			c-0.6,0-1,0.1-1.4,0.2s-0.7,0.3-1,0.5s-0.4,0.5-0.6,0.7C82,47.4,82,47.7,82,47.9s0.1,0.6,0.2,0.7c0.1,0.2,0.2,0.4,0.6,0.6
			c0.3,0.2,0.6,0.3,1,0.5s1,0.3,1.8,0.5c1,0.2,1.8,0.5,2.4,0.7c0.6,0.2,1.3,0.6,1.7,1c0.4,0.4,0.8,0.8,1,1.3c0.2,0.5,0.3,1,0.3,1.6
			c0,0.6-0.2,1.3-0.4,1.8c-0.2,0.6-0.6,1-1.2,1.4c-0.6,0.4-1.1,0.7-1.8,1c-0.7,0.2-1.5,0.3-2.4,0.3c-1,0-1.9-0.2-2.6-0.4
			c-0.7-0.2-1.3-0.6-1.8-1c-0.5-0.5-1-1-1.2-1.6c-0.2-0.6-0.4-1.2-0.4-1.8h2.6c0,0.6,0.2,1,0.4,1.4c0.2,0.4,0.5,0.6,0.9,0.9
			c0.4,0.2,0.7,0.4,1.1,0.5c0.4,0.1,0.8,0.2,1.2,0.2c0.6,0,1-0.1,1.4-0.2c0.4-0.1,0.7-0.2,1-0.5c0.3-0.2,0.5-0.4,0.6-0.7
			C88.6,55.7,88.5,55.4,88.5,55.2z"/>
	</g>
	<circle id="XMLID_1_" class="st0" cx="102.6" cy="53.8" r="5.5"/>
</g>
</svg>
